<?xml version="1.0" encoding="UTF-8" standalone="no"?>
<!-- Created with Inkscape (http://www.inkscape.org/) -->

<svg
   version="1.1"
   id="svg346"
   width="1000"
   height="1000"
   viewBox="0 0 1000 1000"
   sodipodi:docname="octocurious-3-tight-bg.svg"
   inkscape:version="1.2.1 (9c6d41e410, 2022-07-14)"
   xmlns:inkscape="http://www.inkscape.org/namespaces/inkscape"
   xmlns:sodipodi="http://sodipodi.sourceforge.net/DTD/sodipodi-0.dtd"
   xmlns="http://www.w3.org/2000/svg"
   xmlns:svg="http://www.w3.org/2000/svg">
  <defs
     id="defs350">
    <inkscape:path-effect
       effect="spiro"
       id="path-effect21681"
       is_visible="true"
       lpeversion="1" />
    <inkscape:path-effect
       effect="spiro"
       id="path-effect1757"
       is_visible="true"
       lpeversion="1" />
  </defs>
  <sodipodi:namedview
     id="namedview348"
     pagecolor="#505050"
     bordercolor="#ffffff"
     borderopacity="1"
     inkscape:showpageshadow="0"
     inkscape:pageopacity="0"
     inkscape:pagecheckerboard="1"
     inkscape:deskcolor="#505050"
     showgrid="false"
     showguides="false"
     inkscape:zoom="1"
     inkscape:cx="551"
     inkscape:cy="840"
     inkscape:window-width="1920"
     inkscape:window-height="2091"
     inkscape:window-x="20"
     inkscape:window-y="20"
     inkscape:window-maximized="0"
     inkscape:current-layer="layer4" />
  <g
     inkscape:groupmode="layer"
     id="layer4"
     inkscape:label="Background"
     style="display:none">
    <rect
       style="opacity:1;fill:#c5f4f8;fill-opacity:1;stroke:none;stroke-width:32.6316;stroke-linecap:round;stroke-dasharray:none;stroke-opacity:1"
       id="rect30747"
       width="1000"
       height="1000"
       x="0"
       y="0" />
  </g>
  <g
     id="g34130"
     inkscape:label="logo"
     style="display:inline"
     transform="matrix(0.76673669,0,0,0.76673669,-396.9221,-369.38479)">
    <g
       id="g30654"
       inkscape:label="octo"
       style="display:inline;opacity:1">
      <path
         id="path30647"
         style="display:inline;opacity:1;fill:#7f1373;fill-opacity:1;stroke:none;stroke-width:77;stroke-linecap:round;stroke-dasharray:none;stroke-opacity:1"
         inkscape:label="Octo"
         d="m 1389.986,634.04102 c 73.3524,-1.01738 156.0041,19.76418 217.4297,86.15429 98.2814,106.22424 80.8472,233.78526 59.8809,279.24805 -20.9663,45.46294 -63.7984,108.91454 -107.252,129.03324 -43.453,20.1181 -83.1167,25.6688 -96.791,27.623 -13.6743,1.9542 -39.2442,2.8879 -47.4219,20.3613 -5.1203,11.3373 -6.8882,27.2968 -5.0683,42.336 2.0633,15.0928 41.9112,72.7157 95.4414,87.8047 21.8375,6.1555 43.4354,1.5461 71.4551,-6.3028 28.019,-7.8488 62.4423,-20.541 102.8183,-9.7871 35.6465,9.4941 61.7554,30.3637 79.1211,50.3438 8.6829,9.99 15.2999,19.8288 20.2363,28.9238 10.736,19.7362 16.0815,48.4567 8.668,73.0996 -2.584,5.8206 -10.3995,19.0523 -28.1719,22.4863 -17.772,3.4341 -29.3844,-5.5852 -33.8769,-9.7675 -4.9496,-4.6599 -10.0341,-12.8158 -12.5234,-21.3047 -5.8226,-22.8092 1.2496,-28.7112 -12.4493,-42.9258 -9.6704,-11.1263 -23.481,-21.8305 -40.8222,-26.4492 -12.6114,-3.3589 -32.5936,1.2235 -62.2305,9.5254 -29.6369,8.3018 -68.9506,18.7205 -113.1152,6.2714 -18.6509,-5.2573 -38.8684,-16.1378 -49.7364,-25.3125 -8.991,-8.2446 -46.8819,-82.0196 -73.7578,-116.2617 0.059,0.3135 0.061,0.5127 0.1192,0.8242 12.0717,17.3153 31.036,51.8853 48.7089,106.2286 26.014,64.3895 2.9844,149.218 38.8692,207.291 16.6601,24.3606 37.0138,27.6001 60.584,18.3144 36.8946,-14.535 47.2045,-48.6627 46.4511,-51.4804 -5.4913,-20.5413 6.7089,-41.645 27.25,-47.1368 20.5413,-5.4913 41.645,6.7089 47.1368,27.25 16.0837,60.1614 -26.798,119.3994 -94.8028,143.8321 -57.5674,20.6827 -122.5213,1.6332 -150.1777,-47.3125 -27.6438,-48.9235 -36.4474,-114.3042 -39.5,-187.3653 -1.0845,-25.9578 -8.3357,-58.9736 -19.3901,-88.8012 -9.8732,-26.6406 -20.6826,-50.6739 -29.4504,-65.7513 7.0136,25.4802 27.9049,107.0162 30.4167,139.6365 4.4674,58.022 2.3151,101.646 6.8359,160.2598 3.222,25.0968 16.306,56.0102 24.8164,86.543 5.9423,26.8249 0.9332,51.78 -7.4922,72.3867 -18.0002,43.3346 -54.2157,65.6158 -103.9863,68.4883 -18.7788,1.1389 -34.0508,-0.2149 -34.0508,-0.2149 -21.1832,-1.8423 -36.862,-20.5082 -35.0195,-41.6914 1.8423,-21.1823 20.5073,-36.8609 41.6894,-35.0195 18.0968,1.1921 51.28,3.8496 60.0957,-20.7031 5.074,-23.7079 0.3203,-39.8261 -8.248,-61.4883 -26.5019,-73.0454 -12.4904,-139.4649 -21.4141,-222.6504 -3.4555,-44.8792 -17.7393,-116.0419 -25.4609,-137.5176 0.9257,16.4898 -0.579,67.6136 0.2402,90.2246 0.8759,24.175 1.4563,49.634 1.1797,72.1211 -0.2766,22.4871 -2.5457,46.9729 -4.9531,57.9199 -6.2229,28.2968 -19.8642,163.6861 -123.2734,237.5274 -25.0576,17.893 -70.2629,43.7191 -122.79302,52.33 -21.80134,3.574 -43.08329,2.9916 -62.59375,-1.1367 -47.50131,-11.3958 -112.58919,-77.5463 -110.76367,-142.2324 1.98176,-21.1709 20.7512,-36.7265 41.92188,-34.7441 21.16998,1.9827 34.23324,20.6658 34.74218,41.9218 1.03747,23.2105 47.5583,68.191 84.23633,60.2071 32.85582,-5.3863 74.98895,-27.9308 90.50395,-39.0098 69.1529,-49.379 87.701,-143.8316 93.3711,-193.748 1.3937,-12.269 2.3563,-19.5661 2.6074,-39.9805 0.2511,-20.4144 -0.2878,-44.9592 -1.1367,-68.3867 -1.3,-35.8841 5.9322,-81.1418 5.0644,-94.7305 -21.9754,67.2075 -30.2495,139.721 -38.9258,174.7168 -14.437,58.2317 -52.4326,108.805 -102.8965,125.1367 -64.191,20.7745 -138.05707,7.1399 -180.45894,-52.4883 -23.57949,-33.1583 -31.38562,-68.4409 -27.51953,-97.9863 3.86602,-29.5454 16.74206,-51.9528 25.80859,-68.4961 10.21867,-18.6456 33.61766,-25.4775 52.26367,-15.2597 18.64669,10.2181 25.47879,33.619 15.25977,52.2656 -8.89965,16.2387 -15.4557,29.8136 -16.98242,41.4804 -1.52668,11.6675 -0.68825,22.8274 13.92187,43.3731 23.71731,33.3527 50.69132,37.869 93.99805,23.8535 16.17264,-5.6029 28.68934,-28.3285 36.57034,-46.2187 11.9973,-27.2345 17.5802,-62.5249 25.7285,-90.0059 5.5064,-24.6681 22.348,-68.673 34.9355,-102.5801 -22.937,33.3187 -56.7208,105.2977 -68.2812,129.0175 -10.107,19.7345 -25.83706,64.6119 -39.37746,82.5565 -6.51601,7.5638 -26.33245,13.6305 -42.53662,6.0959 -6.49652,-3.5894 -13.16666,-6.9329 -18.2793,-11.5371 -5.37237,-4.8381 -11.93059,-14.2699 -10.12109,-19.2031 9.33872,-23.6111 19.6807,-52.8199 37.75,-85.6191 10.20303,-18.5207 21.60511,-42.6171 34.20508,-66.4375 11.73627,-22.1881 25.53989,-42.6289 44.06639,-66.8477 l -0.1445,-0.082 c -22.9824,18.4247 -43.70743,44.9966 -63.22658,74.3086 -20.65475,-0.385 -39.05531,-1.9053 -54.49609,-8.2617 l -0.96094,-0.3946 -0.9375,-0.4472 c -10.53151,-5.0163 -66.10048,-28.7051 -80.38672,-88.6348 -7.82608,-32.8303 -5.90389,-57.5172 -4.40234,-74.0098 1.50151,-16.4926 2.73086,-24.6881 -3.21289,-47.0957 -4.56754,-17.2194 -25.02344,-35.7597 -25.02344,-35.7597 -5.86675,-6.8767 -25.22792,-22.3007 -32.98242,-23.7344 -19.2599,-3.0584 -39.12422,-15.76981 -39.92774,-37.0176 -0.80371,-21.24777 15.7698,-39.1242 37.01758,-39.92773 49.21816,-1.86123 79.53775,30.68357 90.3086,41.47461 8.96063,8.78779 34.07421,33.90852 45.0332,75.22262 8.53577,32.1795 7.0058,56.9599 5.4707,73.8203 -1.5351,16.8611 -2.92719,25.9051 2.61914,49.1719 4.81994,20.2194 23.09398,29.5335 37.40039,36.3692 7.82455,3.0505 33.03474,9.3845 63.15821,-10.4336 13.15154,-9.4516 17.28664,-14.2078 24.28514,-23.6407 11.5148,-15.5198 22.8926,-38.8966 24.8848,-53.4375 1.9922,-14.5404 7.6196,-56.7859 9,-67.4179 12.9159,0.3582 21.1968,2.6227 32.4414,7.4707 4.9407,-16.2891 11.4582,-38.8073 2.8847,-64.78713 -5.1094,-17.02748 -16.0522,-32.63806 -33.4316,-42.29883 1.7,-15.46358 15.0594,-91.79629 42.4805,-140.3457 27.4208,-48.54942 91.5236,-133.23494 173.4531,-163.00196 30.7237,-11.16258 71.3875,-19.62004 115.3984,-20.23046 z m -13.8418,32.02929 c -4.0796,0.26135 -7.932,2.04196 -10.8515,5.01563 -6.7023,6.82724 -6.8151,18.00861 -0.252,24.98047 l 0.039,0.0391 c 6.5832,6.94975 17.3382,7.04067 24.0293,0.20312 6.6913,-6.83852 6.7866,-18.01977 0.2129,-24.98047 -3.4519,-3.65514 -8.2598,-5.57341 -13.1778,-5.25781 z m -70.4453,11.59375 c -3.6031,0.24717 -7.0056,1.93072 -9.584,4.74219 -5.9189,6.4542 -6.0186,17.0243 -0.2226,23.61523 l 0.033,0.0371 c 5.8144,6.57024 15.3134,6.65591 21.2226,0.19141 5.9097,-6.46442 5.9945,-17.03441 0.1895,-23.61523 -3.0487,-3.45562 -7.295,-5.26915 -11.6387,-4.97071 z m 214.0215,12.46094 c -5.8941,0.0482 -11.3149,3.23695 -14.2207,8.36523 -4.4915,7.92786 -1.7065,17.99568 6.2207,22.48829 28.9004,16.37638 55.4042,44.0667 67.1465,65.99023 3.9676,8.2031 13.8337,11.63696 22.0371,7.66992 8.2039,-3.96688 11.6387,-13.8332 7.6719,-22.03711 -18.9032,-32.64222 -48.6342,-62.22547 -80.5879,-80.33203 -2.5199,-1.4281 -5.3713,-2.16773 -8.2676,-2.14453 z m -275.7285,17.54102 c -2.9968,0.19739 -5.8265,1.53839 -7.9707,3.77734 -4.9229,5.13947 -5.0058,13.55608 -0.1856,18.80469 l 0.027,0.0293 c 4.8363,5.2318 12.7371,5.29998 17.6523,0.15235 4.9152,-5.14758 4.986,-13.5641 0.1582,-18.80469 -2.536,-2.75225 -6.0683,-4.19668 -9.6816,-3.95898 z m 378.0801,125.79687 c -4.4519,0.2832 -8.6559,2.2108 -11.8418,5.42969 -7.3148,7.39082 -7.4558,19.51231 -0.2754,27.04297 l 0.041,0.043 c 7.1852,7.5244 18.9243,7.62232 26.2266,0.21875 7.3027,-7.40314 7.4068,-19.50756 0.2324,-27.04297 -3.7677,-3.95701 -9.0151,-6.03348 -14.3828,-5.69141 z m -392.7539,123.86523 c -1.3938,0.0118 -2.7525,0.0743 -4.0742,0.19141 -13.5505,0.38416 -118.6563,25.1245 -59.8204,130.90817 35.722,-25.7502 78.6664,-24.8674 131.4512,5.709 50.9449,-87.1879 -24.3495,-137.17579 -67.5566,-136.80858 z m -186.959,24.79493 c 0.6108,-0.002 1.1781,0.0693 1.6894,0.21289 15.9621,3.65421 28.2833,23.25976 14.9395,53.98246 -9.0867,-3.3251 -21.6156,-3.6688 -32.6934,-1.1192 -12.0872,-36.46128 6.9022,-53.03905 16.0645,-53.07615 z m 171.0723,6.8125 c 22.4003,-0.55446 55.6491,18.24615 32.457,63.22465 -18.0618,-7.0164 -36.8341,-7.1878 -55.7422,0.1035 -22.7199,-36.2148 0.2849,-60.69396 23.2852,-63.32815 z M 712.06026,1146.0352 c 21.26016,0.3403 38.21925,17.851 37.87891,39.1113 0,0 -0.0846,3.0902 0.74414,28.5508 0.28208,8.6662 10.74368,55.8579 75.21875,77.8867 5.98851,2.054 11.37814,5.5532 15.6914,10.1875 -14.14192,5.2206 -25.96546,15.3022 -33.35547,28.4414 -4.4999,8.2108 -10.41051,18.5459 -15.80273,31.1328 -86.41383,-33.069 -117.26704,-100.7819 -118.71094,-145.1426 -0.84359,-25.918 -0.77539,-32.289 -0.77539,-32.289 0.3403,-21.2603 17.85115,-38.2193 39.11133,-37.8789 z m -44.01953,206.3125 c 21.25509,0.5558 38.03565,18.2374 37.48047,39.4921 -0.55579,21.2553 -18.237,38.0357 -39.49219,37.4805 -5.68643,-0.1767 -31.21823,0.7955 -40.38477,21.4883 -2.58272,7.1017 -4.96142,16.5333 11.08008,39.7344 9.78808,14.1566 26.53101,21.754 51.93164,24.9101 25.40066,3.1562 56.22152,0.3501 81.6875,-3.0898 3.36433,-0.4545 15.45022,-3.8203 29.41211,-8.0469 3.48659,6.4096 7.36986,12.7314 11.74414,18.8828 12.94857,18.2091 28.85369,32.6263 46.48047,43.7031 -25.57015,9.5356 -54.3157,18.6628 -77.33008,21.7715 -27.46981,3.7106 -63.89186,7.8649 -101.48828,3.1934 -37.59642,-4.6715 -79.60647,-19.6885 -105.77148,-57.5313 -26.48688,-38.3077 -31.2111,-79.3156 -20.10938,-109.8418 11.10172,-30.5255 31.98854,-48.3818 52.12891,-57.9668 23.01697,-10.9534 42.88486,-14.6953 62.63086,-14.1796 z"
         transform="matrix(-1,0,0,1,2339.6169,0)"
         sodipodi:nodetypes="scscsccssssccscccssscccccscccsssscccccccscccccsssssccscccssscssssssssscscccccscssccccccsssccsscsssccssccccssscccccsccccccccccccccscscssscscssccscscccccccccccccccsccccscsccccssscscssssccsscs" />
    </g>
    <g
       id="g33236"
       transform="rotate(-22.804517,1526.2235,386.29475)"
       inkscape:label="new8">
      <path
         id="path32488"
         style="opacity:1;fill:#7f1373;fill-opacity:1;stroke:none;stroke-width:70.1248;stroke-linecap:round;stroke-dasharray:none;stroke-opacity:1"
         d="m 1537.3866,498.13327 a 90,90 0 0 0 -37.3868,-8.13435 90,90 0 0 0 -90.0007,90.00158 90,90 0 0 0 89.9998,89.99995 90,90 0 0 0 90.0007,-90.00158 90,90 0 0 0 -52.613,-81.8656 z m -27.8324,60.94518 a 23,23 0 0 1 13.4462,20.92115 23,23 0 0 1 -22.9997,23.00066 23,23 0 0 1 -23.0007,-22.99972 23,23 0 0 1 22.9997,-23.00067 23,23 0 0 1 9.5545,2.07858 z" />
      <path
         id="path32498"
         style="opacity:1;fill:#7f1373;fill-opacity:1;stroke:none;stroke-width:70.4765;stroke-linecap:round;stroke-dasharray:none;stroke-opacity:1"
         d="m 1541.5417,624.03644 a 100,100 0 0 0 -41.5418,-9.03597 100,100 0 0 0 -99.9992,99.99961 100,100 0 0 0 99.9996,99.99918 100,100 0 0 0 99.9992,-99.99961 100,100 0 0 0 -58.4578,-90.96321 z m -27.8323,60.94518 a 33,33 0 0 1 19.2909,30.01875 33,33 0 0 1 -33.0007,32.99974 33,33 0 0 1 -32.9998,-33.00075 33,33 0 0 1 33.0008,-32.99974 33,33 0 0 1 13.7088,2.982 z" />
    </g>
  </g>
</svg>
